<?xml version="1.0" encoding="UTF-8"?>
<!DOCTYPE svg PUBLIC "-//W3C//DTD SVG 1.1//EN" "http://www.w3.org/Graphics/SVG/1.1/DTD/svg11.dtd">
<!-- Creator: CorelDRAW 2019 (64-Bit) -->
<svg xmlns="http://www.w3.org/2000/svg" xml:space="preserve" width="660.948mm" height="233.524mm" version="1.1" style="shape-rendering:geometricPrecision; text-rendering:geometricPrecision; image-rendering:optimizeQuality; fill-rule:evenodd; clip-rule:evenodd"
viewBox="0 0 67902.25 23990.97"
 xmlns:xlink="http://www.w3.org/1999/xlink">
 <defs>
  <style type="text/css">
   <![CDATA[
    .fil0 {fill:#FEFEFE;fill-rule:nonzero}
    .fil1 {fill:url(#id0)}
   ]]>
  </style>
  <linearGradient id="id0" gradientUnits="userSpaceOnUse" x1="2305.72" y1="1256.85" x2="22281.8" y2="20881.06">
   <stop offset="0" style="stop-opacity:1; stop-color:#393685"/>
   <stop offset="0.478431" style="stop-opacity:1; stop-color:#8D2C56"/>
   <stop offset="1" style="stop-opacity:1; stop-color:#E22227"/>
  </linearGradient>
 </defs>
 <g id="Layer_x0020_1">
  <metadata id="CorelCorpID_0Corel-Layer"/>
  <g id="_1705282695552">
   <path class="fil0" d="M65947.3 2209.03l0 -1113.25 -415.75 0 0 -147.97 998.8 0 0 147.97 -415.75 0 0 1113.25 -167.3 0zm751.82 0l0 -1261.22 250.14 0 298.29 892.79c27.58,83.05 47.55,145.3 60.15,186.69 14.39,-45.81 37.03,-113.31 67.55,-202.28l303.55 -877.2 223.45 0 0 1261.22 -160.31 0 0 -1055.1 -368.16 1055.1 -150.33 0 -364.02 -1074.49 0 1074.49 -160.31 0zm-11323.88 13338.28c-13.54,1024.2 -401.98,1900.44 -1164.18,2630.21 -761.05,729.59 -1686.48,1095.34 -2776.85,1095.34 -1089.05,0 -2020.57,-371.85 -2792.88,-1116.5 -772.49,-743.71 -1157.88,-1635.18 -1157.88,-2673.12 0,-1037.94 384.25,-1928.85 1152.93,-2672.74 768.87,-744.85 1703.64,-1116.88 2806.79,-1116.88 761.24,0 1459.36,189.35 2095.52,566.16 636.15,377.95 1120.51,877.57 1453.46,1502.08l-1498.47 403.12c-222.91,-332.76 -515.62,-597.25 -876.42,-793.47 -361.93,-197.94 -753.61,-295.57 -1174.09,-295.57 -659.79,0 -1220.62,231.69 -1684.95,695.83 -464.52,464.52 -696.22,1026.69 -696.22,1688.01 0,660.93 236.65,1224.05 712.24,1692.2 474.25,468.34 1054.33,701.36 1737.78,701.36 552.05,0 1042.9,-158.08 1469.66,-471.96 427.15,-315.59 715.86,-719.67 868.8,-1211.85l-2764.46 0 0 -1143.2 4246.9 0c28.8,201.57 42.34,375.85 42.34,520.98l0 0zm-10228.91 3581.38l-1673.71 -2577.39 -1424.85 0 0 2577.39 -1493.69 0 0 -7290.92 3571.85 0c666.08,0 1226.91,225.4 1685.33,674.67 456.71,449.46 684.58,1019.25 684.58,1706.32 0,520.77 -137.67,974.05 -414.17,1359.63 -276.89,386.92 -646.26,663.42 -1110.79,830.08l1875.65 2720.22 -1700.21 0zm-3098.56 -3756.82l1685.14 0c354.31,0 653.69,-110.22 897.78,-329.33 244.28,-220.06 366.52,-493.13 366.52,-821.12 0,-327.99 -119.95,-602.02 -361.75,-823.98 -240.08,-221.39 -530.88,-331.8 -871.08,-331.8l-1716.61 0 0 2306.23zm-3038.67 2439.14l0 1318.25 -5298 0 0 -7292.06 5191.78 0 0 1318.25 -3624.3 0 0 1673.52 3512.94 0 0 1244.45 -3512.94 0 0 1737.59 3730.52 0zm-12226.8 -5973.24l3252.44 0c559.49,0 1036.42,181.92 1432.29,544.81 394.16,363.07 592.29,808.73 592.29,1336.75 0,311.97 -78,602.01 -234.36,871.65 -155.22,269.06 -375.28,475.59 -658.65,622.04 385.77,137.67 693.93,367.84 921.61,689.73 229.21,323.04 343.06,698.7 343.06,1127 0,617.08 -218.16,1120.13 -653.5,1512 -435.73,391.87 -998.08,587.33 -1685.34,587.33l-3309.84 0 0 -7291.31zm2906.72 2917.21c248.09,0 458.62,-87.71 632.33,-262.97 172.77,-175.43 260.68,-385.95 260.68,-630.04 0,-240.28 -90.19,-442.98 -269.26,-605.64 -177.92,-162.84 -396.83,-244.47 -655.98,-244.47l-1370.88 0 0 1743.12 1403.11 0zm159.42 3199.81c303.96,0 560.63,-101.45 767.15,-305.68 208.23,-204.04 311.78,-446.79 311.78,-730.93 0,-296.72 -107.74,-547.29 -321.69,-748.66 -213.95,-202.71 -476.73,-303.2 -789.66,-303.2l-1530.11 0 0 2088.46 1562.53 0zm27321.59 -15452.92l733.4 0 3231.28 4298.96 3242.53 -4298.96 727.3 0 0 7290.73 -1041.56 0 0 -5255.28 -2710.3 3645.65 -435.92 0 -2700.2 -3645.65 0 5255.28 -1046.52 0 0 -7290.73zm-8130.16 6313.82c-757.24,-741.22 -1136.52,-1630.23 -1136.52,-2667.79 0,-1038.12 379.29,-1928.08 1136.52,-2667.96 758.77,-741.03 1675.04,-1110.41 2747.87,-1110.41 1066.73,0 1980.34,369.37 2740.63,1110.41 759.71,739.88 1139.19,1629.84 1139.19,2667.96 0,1037.56 -379.48,1926.57 -1139.19,2667.79 -760.29,739.69 -1673.9,1110.4 -2740.63,1110.4 -1072.84,0 -1989.11,-370.71 -2747.87,-1110.4zm4719.63 -693.75c545.95,-546.9 818.84,-1205.55 818.84,-1974.04 0,-768.67 -271.73,-1427.32 -815.97,-1974.42 -543.48,-548.61 -1201.93,-821.5 -1974.62,-821.5 -776.3,0 -1435.91,272.11 -1979,816.35 -545.01,543.48 -816.54,1203.27 -816.54,1979.57 0,776.12 271.54,1435.92 816.54,1979.01 543.09,544.62 1202.69,816.35 1979,816.35 768.88,0 1426.19,-274.02 1971.75,-821.31zm-13518.53 693.75c-757.43,-741.22 -1136.91,-1630.23 -1136.91,-2667.79 0,-1038.12 379.48,-1928.08 1136.91,-2667.96 758.38,-741.03 1673.9,-1110.41 2748.06,-1110.41 1066.35,0 1979.19,369.37 2739.1,1110.41 759.72,739.88 1140.15,1629.84 1140.15,2667.96 0,1037.56 -380.43,1926.57 -1140.15,2667.79 -759.91,739.69 -1672.74,1110.4 -2739.1,1110.4 -1074.16,0 -1989.68,-370.71 -2748.06,-1110.4zm4719.63 -693.75c545.95,-546.9 818.83,-1205.55 818.83,-1974.04 0,-768.67 -272.87,-1427.32 -816.35,-1974.42 -543.09,-548.61 -1201.93,-821.5 -1974.04,-821.5 -776.3,0 -1436.29,272.11 -1979.57,816.35 -544.24,543.48 -816.16,1203.27 -816.16,1979.57 0,776.12 271.93,1435.92 816.16,1979.01 543.28,544.62 1203.27,816.35 1979.57,816.35 768.68,0 1425.8,-274.02 1971.57,-821.31zm-6285.98 757.25l0 913.98 -4889.91 0 0 -7291.1 1090.37 0 0 6377.12 3799.53 0zm-11797.15 -6377.7l3156.33 0c531.84,0 986.45,183.83 1363.26,550.72 377.95,366.52 565.58,817.3 565.58,1352.2 0,325.32 -77.23,623.36 -232.64,892.43 -156.56,269.26 -369.37,469.49 -638.43,600.87 375.47,124.13 680.96,345.53 913.79,664.94 234.17,317.88 352.02,692.02 352.02,1120.32 0,602.2 -209.38,1105.43 -627.38,1507.03 -418,402.36 -946.4,603.93 -1583.89,603.93l-3268.64 0 0 -7292.45zm2959.73 3055.84c305.3,0 564.63,-110.21 778.4,-331.8 215.49,-221.39 321.89,-488.17 321.89,-799.95 0,-298.05 -112.5,-549.58 -336.76,-755.14 -225.2,-205 -500.56,-307.78 -827.6,-307.78l-1848.76 0 0 2194.68 1912.84 0zm143.78 3375.25c368.04,0 683.63,-125.28 946.6,-374.52 261.44,-250.38 393.21,-548.24 393.21,-896.44 0,-360.6 -135.01,-666.09 -404.65,-913.61 -268.88,-248.28 -598.2,-371.85 -987.4,-371.85l-2004.36 0 0 2556.42 2056.61 0zm27431.95 8221.31l0 2131.83 -519.29 0 0 -2131.83 519.29 0zm2283.68 2131.83l-519.29 0 -868.51 -1314.91 0 1314.91 -519.29 0 0 -2131.83 519.29 0 868.51 1321.02 0 -1321.02 519.29 0 0 2131.83zm1175.23 -2131.83c224.73,0 421.13,44.56 589.15,133.63 168.02,89.06 298.12,214.09 390.22,375.06 92.14,160.93 138.17,346.68 138.17,557.25 0,208.52 -46.03,393.73 -138.17,555.69 -92.1,162 -222.69,287.51 -391.73,376.57 -169.05,89.07 -364.91,133.63 -587.64,133.63l-798.65 0 0 -2131.83 798.65 0zm-33.37 1682.4c196.35,0 349.22,-53.69 458.51,-160.97 109.34,-107.29 164.01,-259.13 164.01,-455.48 0,-196.4 -54.67,-349.27 -164.01,-458.57 -109.3,-109.34 -262.17,-164.01 -458.51,-164.01l-246 0 0 1239.03 246 0zm1961.76 -1682.4l0 2131.83 -519.29 0 0 -2131.83 519.29 0zm1703.66 1755.25l-795.67 0 -127.51 376.58 -543.57 0 771.33 -2131.83 601.27 0 771.34 2131.83 -549.68 0 -127.51 -376.58zm-133.62 -400.82l-264.21 -780.47 -261.14 780.47 525.35 0z"/>
   <path class="fil1" d="M22956.08 15304.56c0,4219.06 -3432.83,7651.9 -7651.7,7651.9 -4220.02,0 -7652.86,-3432.83 -7652.86,-7651.9l0 -9772.4c0,-1170.28 -951.55,-2122.02 -2120.87,-2122.02 -1169.32,0 -2121.83,951.74 -2121.83,2122.02 0,1167.99 952.5,2120.69 2121.83,2120.69l956.71 0 0 3409 -956.71 0c-3050.88,0 -5530.64,-2481.29 -5530.64,-5529.69 0,-3050.88 2479.77,-5532.16 5530.64,-5532.16 3049.93,0 5531.02,2481.29 5531.02,5532.16l0 9772.4c0,2339.79 1902.91,4243.08 4242.71,4243.08 2339.79,0 4242.7,-1903.29 4242.7,-4243.08 0,-2338.65 -1902.91,-4242.71 -4242.7,-4242.71l-3078.35 0 0 -3409 3078.35 0c4218.87,0 7651.7,3432.65 7651.7,7651.71z"/>
   <path class="fil0" d="M27306.18 21215.15l0 2000.8 -261.23 0 0 -2000.8 261.23 0zm1211.36 399.03c191.36,0 346.37,57.88 465.02,173.68 118.66,115.75 178,282.75 178,500.88l0 927.2 -258.37 0 0 -889.86c0,-156.93 -39.21,-277.04 -117.67,-360.28 -78.47,-83.23 -185.66,-124.88 -321.51,-124.88 -137.82,0 -247.37,43.09 -328.69,129.21 -81.36,86.08 -121.99,211.46 -121.99,376.05l0 869.76 -261.23 0 0 -1573.07 261.23 0 0 223.89c51.63,-80.37 121.99,-142.58 210.97,-186.55 88.98,-44.02 187.09,-66.04 294.24,-66.04zm1837.14 0c191.36,0 346.37,57.88 465.03,173.68 118.65,115.75 178,282.75 178,500.88l0 927.2 -258.38 0 0 -889.86c0,-156.93 -39.21,-277.04 -117.67,-360.28 -78.46,-83.23 -185.66,-124.88 -321.51,-124.88 -137.81,0 -247.37,43.09 -328.69,129.21 -81.36,86.08 -121.99,211.46 -121.99,376.05l0 869.76 -261.23 0 0 -1573.07 261.23 0 0 223.89c51.63,-80.37 121.99,-142.58 210.97,-186.55 88.98,-44.02 187.09,-66.04 294.24,-66.04zm1756.77 1627.6c-147.35,0 -280.84,-33.5 -400.47,-100.47 -119.58,-66.96 -213.37,-162.18 -281.28,-285.64 -67.94,-123.42 -101.94,-266.48 -101.94,-429.11 0,-160.75 34.94,-302.84 104.8,-426.3 69.86,-123.42 165.03,-218.15 285.6,-284.17 120.56,-66.03 255.47,-99.05 404.77,-99.05 149.26,0 284.17,33.02 404.74,99.05 120.57,66.03 215.78,160.27 285.6,282.75 69.86,122.48 104.79,265.06 104.79,427.73 0,162.63 -35.86,305.7 -107.65,429.11 -71.78,123.47 -168.91,218.68 -291.34,285.64 -122.48,66.97 -258.38,100.47 -407.63,100.47zm0 -229.63c93.79,0 181.78,-22.02 264.07,-66.04 82.3,-44.02 148.82,-110.05 199.52,-198.09 50.71,-87.99 76.05,-195.2 76.05,-321.47 0,-126.31 -24.86,-233.46 -74.63,-321.51 -49.76,-88.04 -114.82,-153.58 -195.2,-196.62 -80.38,-43.08 -167.44,-64.6 -261.22,-64.6 -95.67,0 -183.22,21.52 -262.66,64.6 -79.39,43.05 -143.02,108.58 -190.87,196.62 -47.85,88.04 -71.78,195.2 -71.78,321.51 0,128.19 23.44,236.32 70.35,324.36 46.88,88.04 109.52,153.59 188.02,196.62 78.46,43.04 164.54,64.61 258.34,64.61zm1736.67 -37.34l488.01 -1331.93 278.43 0 -617.18 1573.07 -304.27 0 -617.18 -1573.07 281.32 0 490.87 1331.93zm927.19 -551.14c0,-160.76 32.58,-301.86 97.63,-423.41 65.04,-121.5 154.51,-215.78 268.39,-282.75 113.84,-66.97 240.65,-100.47 380.32,-100.47 137.81,0 257.39,29.67 358.85,88.98 101.4,59.35 177.01,133.98 226.74,223.93l0 -287.07 264.13 0 0 1573.07 -264.13 0 0 -292.82c-51.63,91.88 -128.68,167.93 -231.06,228.21 -102.39,60.28 -221.53,90.45 -357.37,90.45 -139.69,0 -266,-34.44 -378.91,-103.37 -112.95,-68.87 -201.92,-165.52 -266.97,-289.92 -65.05,-124.35 -97.63,-265.99 -97.63,-424.83zm1331.93 2.89c0,-118.65 -23.88,-222.01 -71.73,-310.05 -47.85,-88 -112.46,-155.46 -193.77,-202.37 -81.31,-46.88 -170.79,-70.31 -268.4,-70.31 -97.58,0 -186.6,22.94 -266.98,68.88 -80.38,45.93 -144.44,112.9 -192.3,200.94 -47.85,88.04 -71.78,191.36 -71.78,310.02 0,120.56 23.93,225.36 71.78,314.33 47.85,88.98 111.92,156.93 192.3,203.8 80.38,46.91 169.4,70.35 266.98,70.35 97.62,0 187.09,-23.44 268.4,-70.35 81.3,-46.88 145.91,-114.83 193.77,-203.8 47.85,-88.97 71.73,-192.78 71.73,-311.44zm1024.82 -568.39l0 927.2c0,76.54 16.26,130.59 48.83,162.18 32.53,31.59 88.98,47.36 169.36,47.36l192.3 0 0 221.04 -235.39 0c-145.43,0 -254.5,-33.51 -327.21,-100.47 -72.77,-66.97 -109.12,-177.02 -109.12,-330.11l0 -927.2 -203.79 0 0 -215.29 203.79 0 0 -396.13 261.23 0 0 396.13 410.49 0 0 215.29 -410.49 0zm2161.5 510.96c0,49.76 -2.86,102.39 -8.6,157.9l-1257.31 0c9.59,155.01 62.69,276.02 159.33,363.13 96.64,87.06 213.86,130.6 351.63,130.6 112.91,0 207.18,-26.34 282.75,-78.95 75.61,-52.62 128.72,-122.93 159.33,-210.98l281.32 0c-42.1,151.17 -126.31,274.15 -252.62,368.88 -126.31,94.72 -283.24,142.08 -470.77,142.08 -149.26,0 -282.75,-33.5 -400.42,-100.47 -117.71,-66.96 -210.03,-162.18 -277.04,-285.64 -66.96,-123.42 -100.47,-266.48 -100.47,-429.11 0,-162.67 32.58,-305.24 97.63,-427.73 65.04,-122.48 156.42,-216.72 274.15,-282.75 117.66,-66.03 253.07,-99.05 406.16,-99.05 149.26,0 281.32,32.53 396.14,97.62 114.82,65.05 203.34,154.52 265.55,268.4 62.15,113.84 93.25,242.56 93.25,386.07zm-269.83 -54.53c0,-99.54 -22.01,-185.17 -66.03,-256.91 -43.97,-71.78 -103.81,-126.31 -179.37,-163.65 -75.61,-37.29 -159.33,-55.97 -251.21,-55.97 -132.01,0 -244.48,42.11 -337.28,126.32 -92.81,84.2 -145.92,200.94 -159.33,350.2l993.22 0zm697.56 918.59c-49.72,0 -91.82,-17.24 -126.31,-51.69 -34.44,-34.44 -51.63,-76.55 -51.63,-126.31 0,-49.76 17.2,-91.88 51.63,-126.31 34.49,-34.45 76.59,-51.64 126.31,-51.64 47.85,0 88.54,17.2 122,51.64 33.5,34.44 50.26,76.55 50.26,126.31 0,49.76 -16.76,91.88 -50.26,126.31 -33.46,34.45 -74.14,51.69 -122,51.69zm1547.26 -2018.04l0 2000.8 -261.22 0 0 -2000.8 261.22 0zm1211.37 399.03c191.36,0 346.37,57.88 465.02,173.68 118.65,115.75 178,282.75 178,500.88l0 927.2 -258.38 0 0 -889.86c0,-156.93 -39.2,-277.04 -117.67,-360.28 -78.46,-83.23 -185.66,-124.88 -321.51,-124.88 -137.81,0 -247.36,43.09 -328.68,129.21 -81.36,86.08 -122,211.46 -122,376.05l0 869.76 -261.22 0 0 -1573.07 261.22 0 0 223.89c51.64,-80.37 122,-142.58 210.98,-186.55 88.97,-44.02 187.08,-66.04 294.24,-66.04zm1389.31 243.98l0 927.2c0,76.54 16.26,130.59 48.84,162.18 32.53,31.59 88.98,47.36 169.35,47.36l192.31 0 0 221.04 -235.39 0c-145.43,0 -254.5,-33.51 -327.22,-100.47 -72.76,-66.97 -109.11,-177.02 -109.11,-330.11l0 -927.2 -203.79 0 0 -215.29 203.79 0 0 -396.13 261.22 0 0 396.13 410.5 0 0 215.29 -410.5 0zm2161.5 510.96c0,49.76 -2.85,102.39 -8.6,157.9l-1257.3 0c9.57,155.01 62.69,276.02 159.33,363.13 96.64,87.06 213.86,130.6 351.63,130.6 112.9,0 207.17,-26.34 282.75,-78.95 75.61,-52.62 128.72,-122.93 159.33,-210.98l281.32 0c-42.1,151.17 -126.31,274.15 -252.62,368.88 -126.32,94.72 -283.24,142.08 -470.77,142.08 -149.26,0 -282.75,-33.5 -400.42,-100.47 -117.71,-66.96 -210.03,-162.18 -277.04,-285.64 -66.97,-123.42 -100.47,-266.48 -100.47,-429.11 0,-162.67 32.57,-305.24 97.62,-427.73 65.05,-122.48 156.43,-216.72 274.15,-282.75 117.67,-66.03 253.08,-99.05 406.17,-99.05 149.25,0 281.32,32.53 396.13,97.62 114.82,65.05 203.35,154.52 265.55,268.4 62.15,113.84 93.25,242.56 93.25,386.07zm-269.82 -54.53c0,-99.54 -22.01,-185.17 -66.03,-256.91 -43.98,-71.78 -103.81,-126.31 -179.38,-163.65 -75.6,-37.29 -159.32,-55.97 -251.2,-55.97 -132.02,0 -244.48,42.11 -337.29,126.32 -92.81,84.2 -145.91,200.94 -159.33,350.2l993.23 0zm1263.05 -697.56c135.9,0 255.04,29.67 357.42,88.98 102.34,59.35 178.44,133.98 228.16,223.93l0 -287.07 264.13 0 0 1607.51c0,143.51 -30.61,271.25 -91.88,383.22 -61.22,111.97 -148.77,199.52 -262.65,262.65 -113.89,63.18 -246.4,94.72 -397.57,94.72 -206.69,0 -378.9,-48.79 -516.7,-146.36 -137.77,-97.63 -219.12,-230.62 -243.98,-399.04l258.34 0c28.68,95.71 88.03,172.74 178,231.11 89.9,58.36 198.04,87.55 324.35,87.55 143.52,0 260.74,-45.01 351.63,-134.96 90.9,-89.91 136.34,-216.23 136.34,-378.9l0 -330.11c-51.63,91.88 -128.18,168.41 -229.63,229.63 -101.41,61.27 -220.06,91.88 -355.95,91.88 -139.68,0 -266.48,-34.44 -380.32,-103.37 -113.88,-68.87 -203.35,-165.52 -268.39,-289.92 -65.05,-124.35 -97.63,-265.99 -97.63,-424.83 0,-160.76 32.58,-301.86 97.63,-423.41 65.04,-121.5 154.51,-215.78 268.39,-282.75 113.84,-66.97 240.65,-100.47 380.32,-100.47zm585.59 809.52c0,-118.65 -23.88,-222.01 -71.73,-310.05 -47.85,-88 -112.46,-155.46 -193.77,-202.37 -81.31,-46.88 -170.79,-70.31 -268.4,-70.31 -97.58,0 -186.6,22.94 -266.98,68.88 -80.38,45.93 -144.44,112.9 -192.3,200.94 -47.85,88.04 -71.78,191.36 -71.78,310.02 0,120.56 23.93,225.36 71.78,314.33 47.85,88.98 111.92,156.93 192.3,203.8 80.38,46.91 169.4,70.35 266.98,70.35 97.62,0 187.09,-23.44 268.4,-70.35 81.3,-46.88 145.91,-114.83 193.77,-203.8 47.85,-88.97 71.73,-192.78 71.73,-311.44zm967.43 -528.2c45.93,-89.95 111.48,-159.77 196.62,-209.54 85.14,-49.77 188.96,-74.64 311.44,-74.64l0 269.83 -68.88 0c-292.77,0 -439.18,158.84 -439.18,476.51l0 855.42 -261.23 0 0 -1573.07 261.23 0 0 255.48zm711.86 525.31c0,-160.76 32.57,-301.86 97.62,-423.41 65.05,-121.5 154.51,-215.78 268.4,-282.75 113.83,-66.97 240.64,-100.47 380.32,-100.47 137.81,0 257.39,29.67 358.84,88.98 101.41,59.35 177.02,133.98 226.75,223.93l0 -287.07 264.12 0 0 1573.07 -264.12 0 0 -292.82c-51.64,91.88 -128.68,167.93 -231.07,228.21 -102.39,60.28 -221.53,90.45 -357.37,90.45 -139.68,0 -265.99,-34.44 -378.9,-103.37 -112.95,-68.87 -201.92,-165.52 -266.98,-289.92 -65.05,-124.35 -97.62,-265.99 -97.62,-424.83zm1331.93 2.89c0,-118.65 -23.89,-222.01 -71.74,-310.05 -47.85,-88 -112.45,-155.46 -193.77,-202.37 -81.31,-46.88 -170.78,-70.31 -268.4,-70.31 -97.58,0 -186.6,22.94 -266.97,68.88 -80.38,45.93 -144.46,112.9 -192.31,200.94 -47.84,88.04 -71.77,191.36 -71.77,310.02 0,120.56 23.93,225.36 71.77,314.33 47.85,88.98 111.93,156.93 192.31,203.8 80.37,46.91 169.39,70.35 266.97,70.35 97.63,0 187.09,-23.44 268.4,-70.35 81.31,-46.88 145.91,-114.83 193.77,-203.8 47.85,-88.97 71.74,-192.78 71.74,-311.44zm1024.81 -568.39l0 927.2c0,76.54 16.26,130.59 48.83,162.18 32.53,31.59 88.98,47.36 169.36,47.36l192.3 0 0 221.04 -235.39 0c-145.42,0 -254.49,-33.51 -327.21,-100.47 -72.76,-66.97 -109.11,-177.02 -109.11,-330.11l0 -927.2 -203.79 0 0 -215.29 203.79 0 0 -396.13 261.22 0 0 396.13 410.49 0 0 215.29 -410.49 0zm2161.5 510.96c0,49.76 -2.85,102.39 -8.6,157.9l-1257.3 0c9.57,155.01 62.69,276.02 159.32,363.13 96.64,87.06 213.87,130.6 351.63,130.6 112.91,0 207.18,-26.34 282.75,-78.95 75.61,-52.62 128.73,-122.93 159.33,-210.98l281.33 0c-42.11,151.17 -126.32,274.15 -252.63,368.88 -126.31,94.72 -283.24,142.08 -470.77,142.08 -149.25,0 -282.75,-33.5 -400.42,-100.47 -117.71,-66.96 -210.03,-162.18 -277.03,-285.64 -66.97,-123.42 -100.47,-266.48 -100.47,-429.11 0,-162.67 32.57,-305.24 97.62,-427.73 65.05,-122.48 156.43,-216.72 274.15,-282.75 117.67,-66.03 253.08,-99.05 406.16,-99.05 149.26,0 281.33,32.53 396.14,97.62 114.82,65.05 203.35,154.52 265.55,268.4 62.15,113.84 93.25,242.56 93.25,386.07zm-269.82 -54.53c0,-99.54 -22.02,-185.17 -66.04,-256.91 -43.97,-71.78 -103.81,-126.31 -179.37,-163.65 -75.61,-37.29 -159.33,-55.97 -251.21,-55.97 -132.01,0 -244.47,42.11 -337.28,126.32 -92.81,84.2 -145.91,200.94 -159.33,350.2l993.23 0zm697.56 918.59c-49.72,0 -91.83,-17.24 -126.32,-51.69 -34.44,-34.44 -51.63,-76.55 -51.63,-126.31 0,-49.76 17.2,-91.88 51.63,-126.31 34.49,-34.45 76.6,-51.64 126.32,-51.64 47.84,0 88.53,17.2 121.99,51.64 33.5,34.44 50.26,76.55 50.26,126.31 0,49.76 -16.76,91.88 -50.26,126.31 -33.46,34.45 -74.14,51.69 -121.99,51.69zm1547.26 -2018.04l0 2000.8 -261.23 0 0 -2000.8 261.23 0zm1211.36 399.03c191.36,0 346.37,57.88 465.02,173.68 118.66,115.75 178,282.75 178,500.88l0 927.2 -258.37 0 0 -889.86c0,-156.93 -39.21,-277.04 -117.67,-360.28 -78.46,-83.23 -185.66,-124.88 -321.51,-124.88 -137.81,0 -247.37,43.09 -328.69,129.21 -81.36,86.08 -121.99,211.46 -121.99,376.05l0 869.76 -261.23 0 0 -1573.07 261.23 0 0 223.89c51.63,-80.37 121.99,-142.58 210.97,-186.55 88.98,-44.02 187.09,-66.04 294.24,-66.04zm1627.6 1627.6c-120.57,0 -228.71,-20.59 -324.4,-61.71 -95.67,-41.17 -171.28,-98.55 -226.75,-172.24 -55.52,-73.69 -86.12,-158.36 -91.88,-254.05l269.83 0c7.66,78.46 44.5,142.58 110.54,192.34 65.99,49.77 152.6,74.64 259.75,74.64 99.54,0 178,-22.02 235.39,-66.04 57.43,-44.02 86.12,-99.49 86.12,-166.5 0,-68.88 -30.6,-120.08 -91.88,-153.54 -61.22,-33.5 -155.94,-66.52 -284.17,-99.05 -116.73,-30.6 -211.94,-61.7 -285.59,-93.29 -73.69,-31.59 -136.83,-78.47 -189.45,-140.66 -52.66,-62.2 -78.95,-144 -78.95,-245.45 0,-80.34 23.93,-154.03 71.74,-220.99 47.84,-67.01 115.79,-120.13 203.84,-159.33 88.04,-39.25 188.47,-58.86 301.41,-58.86 174.12,0 314.79,44.02 421.94,132.07 107.2,88.03 164.59,208.56 172.24,361.7l-261.22 0c-5.74,-82.3 -38.76,-148.33 -99.05,-198.09 -60.28,-49.77 -141.11,-74.64 -242.56,-74.64 -93.75,0 -168.37,20.09 -223.89,60.28 -55.52,40.19 -83.23,92.81 -83.23,157.86 0,51.69 16.7,94.28 50.21,127.74 33.51,33.5 75.61,60.28 126.31,80.38 50.71,20.09 121.06,42.59 210.98,67.46 112.9,30.66 204.77,60.77 275.58,90.45 70.79,29.67 131.57,74.13 182.27,133.48 50.75,59.31 77.03,136.83 78.95,232.49 0,86.12 -23.93,163.66 -71.78,232.54 -47.8,68.87 -115.26,122.96 -202.37,162.18 -87.06,39.25 -187.05,58.86 -299.94,58.86zm1202.76 -1308.98c51.63,-89.96 128.68,-165.03 231.06,-225.32 102.39,-60.28 221.53,-90.45 357.38,-90.45 139.72,0 266.48,33.5 380.36,100.47 113.84,66.96 203.3,161.24 268.39,282.75 65.05,121.55 97.58,262.65 97.58,423.41 0,158.84 -32.53,300.48 -97.58,424.83 -65.09,124.4 -154.55,221.04 -268.39,289.92 -113.88,68.93 -240.65,103.37 -380.36,103.37 -133.94,0 -252.14,-30.16 -354.49,-90.45 -102.39,-60.28 -180.4,-135.35 -233.96,-225.32l0 1036.26 -261.22 0 0 -2319.41 261.22 0 0 289.93zm1067.85 490.87c0,-118.66 -23.93,-221.98 -71.78,-310.02 -47.85,-88.04 -112.41,-155.01 -193.77,-200.94 -81.31,-45.94 -170.79,-68.88 -268.4,-68.88 -95.66,0 -184.19,23.43 -265.51,70.31 -81.36,46.91 -146.41,114.82 -195.2,203.84 -48.83,88.98 -73.2,191.86 -73.2,308.58 0,118.66 24.37,222.47 73.2,311.44 48.79,88.98 113.84,156.93 195.2,203.8 81.31,46.91 169.85,70.35 265.51,70.35 97.62,0 187.09,-23.44 268.4,-70.35 81.36,-46.88 145.91,-114.83 193.77,-203.8 47.85,-88.97 71.78,-193.77 71.78,-314.33zm746.35 -1036.27c-49.77,0 -91.88,-17.24 -126.32,-51.68 -34.44,-34.45 -51.68,-76.55 -51.68,-126.27 0,-49.77 17.24,-91.88 51.68,-126.31 34.45,-34.45 76.55,-51.69 126.32,-51.69 47.84,0 88.49,17.24 121.99,51.69 33.5,34.44 50.26,76.54 50.26,126.31 0,49.72 -16.76,91.82 -50.26,126.27 -33.5,34.44 -74.14,51.68 -121.99,51.68zm126.31 255.48l0 1573.07 -261.23 0 0 -1573.07 261.23 0zm706.16 255.48c45.93,-89.95 111.48,-159.77 196.61,-209.54 85.15,-49.77 188.96,-74.64 311.45,-74.64l0 269.83 -68.88 0c-292.77,0 -439.18,158.84 -439.18,476.51l0 855.42 -261.23 0 0 -1573.07 261.23 0 0 255.48zm2244.73 470.77c0,49.76 -2.86,102.39 -8.6,157.9l-1257.31 0c9.59,155.01 62.69,276.02 159.33,363.13 96.64,87.06 213.86,130.6 351.63,130.6 112.91,0 207.18,-26.34 282.75,-78.95 75.61,-52.62 128.73,-122.93 159.33,-210.98l281.32 0c-42.1,151.17 -126.31,274.15 -252.62,368.88 -126.31,94.72 -283.24,142.08 -470.77,142.08 -149.25,0 -282.75,-33.5 -400.42,-100.47 -117.71,-66.96 -210.03,-162.18 -277.04,-285.64 -66.96,-123.42 -100.46,-266.48 -100.46,-429.11 0,-162.67 32.57,-305.24 97.62,-427.73 65.05,-122.48 156.43,-216.72 274.15,-282.75 117.67,-66.03 253.08,-99.05 406.16,-99.05 149.26,0 281.33,32.53 396.14,97.62 114.82,65.05 203.34,154.52 265.55,268.4 62.15,113.84 93.25,242.56 93.25,386.07zm-269.82 -54.53c0,-99.54 -22.02,-185.17 -66.04,-256.91 -43.97,-71.78 -103.81,-126.31 -179.37,-163.65 -75.61,-37.29 -159.33,-55.97 -251.21,-55.97 -132.01,0 -244.47,42.11 -337.28,126.32 -92.81,84.2 -145.92,200.94 -159.33,350.2l993.23 0zm697.55 918.59c-49.72,0 -91.82,-17.24 -126.31,-51.69 -34.44,-34.44 -51.63,-76.55 -51.63,-126.31 0,-49.76 17.2,-91.88 51.63,-126.31 34.49,-34.45 76.59,-51.64 126.31,-51.64 47.85,0 88.54,17.2 122,51.64 33.5,34.44 50.26,76.55 50.26,126.31 0,49.76 -16.76,91.88 -50.26,126.31 -33.46,34.45 -74.14,51.69 -122,51.69z"/>
  </g>
 </g>
</svg>
